<svg xmlns="http://www.w3.org/2000/svg" width="40" height="32" viewBox="0 0 100 110">
    <g fill="#ffffff" transform="translate(-663.755 -466.106)">
        <path fill-rule="evenodd" clip-rule="evenodd" d="M704.278,501.793c-4.86-2.573-12.484-18.367-16.421-28.35a11.657,11.657,0,0,0-11.1-7.337,9.039,9.039,0,0,0-9.458,8.646c0,.182.026.346.037.522a7.9,7.9,0,0,0-3.249,3.649,5.2,5.2,0,0,0,.279,4.241l2.2,4.4,1.316-4.739a2.833,2.833,0,0,1,2.374-1.769c.037.027.081.065.117.088.382.279.729.525,1.042.747,1,.712,1.529,1.095,1.583,1.347a19.271,19.271,0,0,1-.654,4.607c-.317,1.621-.729,3.735-1.192,6.453h3.838c.412-2.377.778-4.255,1.066-5.726,1.17-5.971,1.381-7.047-2.454-9.766-.3-.213-.63-.448-1.084-.777a3.959,3.959,0,0,1-1.438-3.15,5.244,5.244,0,0,1,5.678-4.99,7.937,7.937,0,0,1,7.564,4.882c.841,2.135,6.973,17.417,13.3,25.688-.186-.006-.375-.009-.564-.009a16.313,16.313,0,0,0-11.775,4.85,21.94,21.94,0,0,0-2.4,2.866l3.182,2.666c.354-.569.711-1.088,1.045-1.529l2.1-2.171a11.2,11.2,0,0,1,7.809-2.843,17.506,17.506,0,0,1,7.076,1.646c3.954,1.758,6.205,4.79,9.052,8.629,1.13,1.523,2.375,3.2,3.861,4.967-1.4,1.551-4.725,4.445-10.965,5.939l.883,3.679a25.185,25.185,0,0,0,12.606-6.8q1.341,1.407,2.945,2.87c-2.376,3.077-8.841,9.857-19.211,8.983l-.318,3.769c.736.063,1.453.092,2.154.092,10.74,0,17.515-6.9,20.255-10.391a76.293,76.293,0,0,0,13.535,8.494,1.485,1.485,0,0,1,.021,1.917s-.255.22-1.2.22a18.9,18.9,0,0,1-5.663-1.316,12.108,12.108,0,0,0-3.4-.482,8.033,8.033,0,0,0-6.969,3.373c-.45.651-2.571,1.645-6.37,1.791v3.782c4.568-.151,8.086-1.4,9.483-3.427a4.37,4.37,0,0,1,3.856-1.735,8.288,8.288,0,0,1,2.137.262,22.409,22.409,0,0,0,6.926,1.535c2.651,0,3.877-1.116,4.438-2.053a6.259,6.259,0,0,0,.325-.681c5.426,1.016,10.588,2.69,11.994,3.858.011.031.018.063.031.094-.979.774-4.876,2.678-20.351,4.734a83.743,83.743,0,0,1-15.357.681l-5.848-.551c-21.16-2.888-32.2-14.7-36.287-20.228a7.078,7.078,0,0,0,4.047-2.814,22.851,22.851,0,0,0,6.26,8.842c9.517,8.731,19.225,10.911,24.743,11.387v-3.809c-7.648-.728-15.761-4.472-22.184-10.365-4.236-3.885-6.274-8.113-6.055-12.566a14.785,14.785,0,0,1,.928-4.39l-3.4-2.849a20.834,20.834,0,0,0-2.073,8.125c-.07.6-.681,4.882-4.148,4.882a5.359,5.359,0,0,1-.655-.042c-.652-1.153-2.573-6.112-.349-22.176.215-1.55.425-2.963.629-4.268h-3.828c-.179,1.166-.362,2.4-.549,3.749-1.669,12.059-1.147,18.581-.169,22.106l.134.46a7.021,7.021,0,0,0,1.769,3.21,49.927,49.927,0,0,0,14.045,14.328,58.411,58.411,0,0,0,14.784,7.354l4.526,10.612,1.266-.022-.413,3.294-9.729,5.292,1.291,2.374,9.929-5.4,2.8,6.066,2.454-1.131-2.284-4.957L714.6,565l-.15-2.7-5.72.316.374-2.972,1.3-.023,6.366-7.282c1.981.157,4.037.244,6.176.244a88.81,88.81,0,0,0,11.7-.8c10.346-1.374,16.361-2.757,19.775-4.217l8.809,4.271a1.89,1.89,0,0,0,1.684-.018l14.322-7.3a1.891,1.891,0,0,0-.836-3.575l-13.3-.161,9.806-1.76a1.892,1.892,0,0,0,1.555-1.751l.54-9.187a1.893,1.893,0,0,0-2.862-1.734l-20.373,12.226a51.487,51.487,0,0,0-10.99-3.023,5.33,5.33,0,0,0-1.6-2.428l-.35-.225c-14.842-7.381-20.279-14.712-24.649-20.6-3.053-4.116-5.689-7.67-10.553-9.832-.228-.1-.454-.173-.681-.266Zm4.373,54.081-1.066.018-1.967-4.611,6.513.614Zm64.361-24.425-.244,4.124-9.46,1.7Zm-8.983,16.579-5.7-2.763a3.789,3.789,0,0,0,.36-.768l11.987.146Z"/>
        <path fill-rule="evenodd" clip-rule="evenodd" d="M679.184,473.8a2.027,2.027,0,1,0-2.026,2.026A2.026,2.026,0,0,0,679.184,473.8Z"/>
    </g>
</svg>